<svg width="32" height="32" viewBox="0 0 32 32" fill="none" xmlns="http://www.w3.org/2000/svg">
<path d="M31.5241 6.58268C30.4107 7.07601 29.2147 7.40934 27.9574 7.56001C29.2401 6.79201 30.2241 5.57334 30.6881 4.12268C29.4881 4.83468 28.1587 5.35201 26.7441 5.62934C25.6107 4.42401 23.9974 3.66934 22.2107 3.66934C18.7814 3.66934 16.0001 6.45068 16.0001 9.88268C16.0001 10.368 16.0561 10.84 16.1601 11.296C10.9961 11.036 6.42139 8.56268 3.35739 4.80534C2.82406 5.72534 2.51739 6.79201 2.51739 7.92801C2.51739 10.0827 3.61472 11.9853 5.28006 13.0987C4.26139 13.0653 3.30406 12.7867 2.46672 12.3213V12.4013C2.46672 15.4107 4.60672 17.9213 7.44939 18.492C6.92672 18.6333 6.37872 18.708 5.81339 18.708C5.41339 18.708 5.02272 18.6707 4.64406 18.5987C5.43472 21.0653 7.72806 22.8627 10.4467 22.9107C8.32006 24.5773 5.64139 25.5707 2.73206 25.5707C2.23072 25.5707 1.73606 25.5413 1.24939 25.484C3.99872 27.248 7.26272 28.2747 10.7694 28.2747C22.1961 28.2747 28.4427 18.8107 28.4427 10.6027C28.4427 10.336 28.4361 10.0667 28.4241 9.80001C29.6374 8.92267 30.6907 7.83068 31.5214 6.58668L31.5241 6.58268Z" fill="#d6d9db"/>
</svg>
